<svg width="50" height="50" viewBox="0 0 50 50" fill="none" xmlns="http://www.w3.org/2000/svg">
<g clip-path="url(#clip0_17_2)">
<path d="M25.6594 6.39689C25.4529 6.30076 25.2278 6.25095 25 6.25095C24.7722 6.25095 24.5472 6.30076 24.3406 6.39689L0.903128 17.3344C0.627136 17.4632 0.39481 17.6699 0.234725 17.929C0.0746402 18.1881 -0.00622464 18.4884 0.0020759 18.7928C0.0103764 19.0973 0.10748 19.3927 0.281446 19.6427C0.455411 19.8927 0.698652 20.0864 0.981253 20.2L24.4188 29.575C24.7918 29.7245 25.2082 29.7245 25.5813 29.575L43.75 22.3125V40.625C42.9212 40.625 42.1263 40.9543 41.5403 41.5403C40.9542 42.1264 40.625 42.9212 40.625 43.75V50H50V43.75C50 42.9212 49.6708 42.1264 49.0847 41.5403C48.4987 40.9543 47.7038 40.625 46.875 40.625V21.0594L49.0188 20.2C49.3014 20.0864 49.5446 19.8927 49.7186 19.6427C49.8925 19.3927 49.9896 19.0973 49.9979 18.7928C50.0062 18.4884 49.9254 18.1881 49.7653 17.929C49.6052 17.6699 49.3729 17.4632 49.0969 17.3344L25.6594 6.39689Z" fill="#FFC0CB"/>
<path d="M13.05 28.225C12.8488 28.1492 12.6341 28.1158 12.4194 28.1267C12.2047 28.1377 11.9945 28.1929 11.8021 28.2888C11.6097 28.3847 11.4391 28.5193 11.3011 28.6842C11.1631 28.849 11.0606 29.0406 11 29.2469L9.43749 34.5594C9.32805 34.9323 9.36153 35.3327 9.53142 35.6823C9.7013 36.0319 9.99538 36.3056 10.3562 36.45L24.4187 42.075C24.7918 42.2245 25.2082 42.2245 25.5812 42.075L39.6437 36.45C40.0046 36.3056 40.2987 36.0319 40.4686 35.6823C40.6384 35.3327 40.6719 34.9323 40.5625 34.5594L39 29.2469C38.9394 29.0406 38.8369 28.849 38.6989 28.6842C38.5609 28.5193 38.3903 28.3847 38.1979 28.2888C38.0055 28.1929 37.7953 28.1377 37.5806 28.1267C37.3659 28.1158 37.1512 28.1492 36.95 28.225L25 32.7063L13.05 28.225Z" fill="#FFC0CB"/>
</g>
<defs>
<clipPath id="clip0_17_2">
<rect width="50" height="50" fill="white"/>
</clipPath>
</defs>
</svg>
