<svg width="50" height="50" viewBox="0 0 130 160" fill="none" xmlns="http://www.w3.org/2000/svg">
<g clip-path="url(#clip0_15_2)">
<path d="M66.7146 20.47C66.1777 20.1624 65.5925 20.003 65.0002 20.003C64.408 20.003 63.8228 20.1624 63.2859 20.47L2.34837 55.47C1.63078 55.8822 1.02674 56.5436 0.610518 57.3728C0.194296 58.2019 -0.0159521 59.1627 0.00562928 60.137C0.0272107 61.1113 0.279681 62.0566 0.731991 62.8566C1.1843 63.6566 1.81673 64.2765 2.55149 64.64L63.489 94.64C64.459 95.1185 65.5415 95.1185 66.5115 94.64L113.75 71.4V130C111.595 130 109.529 131.054 108.005 132.929C106.481 134.804 105.625 137.348 105.625 140V160H130V140C130 137.348 129.144 134.804 127.62 132.929C126.097 131.054 124.03 130 121.875 130V67.39L127.449 64.64C128.184 64.2765 128.816 63.6566 129.268 62.8566C129.721 62.0566 129.973 61.1113 129.995 60.137C130.016 59.1627 129.806 58.2019 129.39 57.3728C128.974 56.5436 128.37 55.8822 127.652 55.47L66.7146 20.47ZM65.0002 84.6L14.284 59.65L65.0002 30.52L115.716 59.65L65.0002 84.6Z" fill="#FFC0CB"/>
<path d="M33.93 90.32C33.4069 90.0775 32.8487 89.9704 32.2904 90.0055C31.7322 90.0407 31.1858 90.2172 30.6855 90.5241C30.1852 90.8311 29.7417 91.2618 29.3829 91.7893C29.024 92.3169 28.7575 92.9299 28.6 93.59L24.5375 110.59C24.2529 111.783 24.34 113.065 24.7817 114.183C25.2234 115.302 25.988 116.178 26.9262 116.64L63.4887 134.64C64.4587 135.118 65.5412 135.118 66.5112 134.64L103.074 116.64C104.012 116.178 104.777 115.302 105.218 114.183C105.66 113.065 105.747 111.783 105.462 110.59L101.4 93.59C101.242 92.9299 100.976 92.3169 100.617 91.7893C100.258 91.2618 99.8148 90.8311 99.3145 90.5241C98.8142 90.2172 98.2678 90.0407 97.7096 90.0055C97.1513 89.9704 96.5931 90.0775 96.07 90.32L65 104.66L33.93 90.32ZM33.3775 109.05L35.165 101.57L63.57 114.68C64.4918 115.107 65.5082 115.107 66.43 114.68L94.835 101.57L96.6225 109.05L65 124.6L33.3775 109.05Z" fill="#FFC0CB"/>
</g>
<defs>
<clipPath id="clip0_15_2">
<rect width="130" height="160" fill="white"/>
</clipPath>
</defs>
</svg>
