<svg width="100" height="100" viewBox="0 0 334 338" fill="none" xmlns="http://www.w3.org/2000/svg">
<g clip-path="url(#clip0_11_2)">
<path d="M0 24.2093C0 10.8371 10.9802 0 24.5281 0H309.472C323.02 0 334 10.8371 334 24.2093V313.791C334 327.163 323.02 338 309.472 338H24.5281C10.9802 338 0 327.163 0 313.791V24.2093ZM103.185 282.948V130.32H53.0643V282.948H103.185ZM78.1351 109.47C95.6075 109.47 106.483 97.7665 106.483 83.1058C106.17 68.1281 95.6284 56.7418 78.4691 56.7418C61.3099 56.7418 50.1 68.1493 50.1 83.1058C50.1 97.7665 60.9759 109.47 77.8011 109.47H78.1351ZM180.59 282.948V197.709C180.59 193.146 180.924 188.583 182.26 185.33C185.871 176.225 194.117 166.782 207.978 166.782C226.118 166.782 233.362 180.767 233.362 201.3V282.948H283.482V195.406C283.482 148.509 258.767 126.708 225.784 126.708C199.189 126.708 187.27 141.495 180.59 151.91V152.438H180.256L180.59 151.91V130.32H130.49C131.116 144.643 130.49 282.948 130.49 282.948H180.59Z" fill="#FFC0CB"/>
</g>
<defs>
<clipPath id="clip0_11_2">
<rect width="334" height="338" fill="white"/>
</clipPath>
</defs>
</svg>
